HIERARCHY
ROOT joint_Root
{
	OFFSET 0.0 0.0 0.0
	CHANNELS 6 Xposition Yposition Zposition Zrotation Xrotation Yrotation 
	JOINT Hips
	{
		OFFSET -0.726466 93.3139 -2.00062
		CHANNELS 6 Xposition Yposition Zposition Zrotation Xrotation Yrotation 
		JOINT Spine
		{
			OFFSET 15.7357 0.0 0.0
			CHANNELS 6 Xposition Yposition Zposition Zrotation Xrotation Yrotation 
			JOINT Chest
			{
				OFFSET 8.98455 -0.406207 0.0
				CHANNELS 6 Xposition Yposition Zposition Zrotation Xrotation Yrotation 
				JOINT Neck
				{
					OFFSET 16.3773 0.0 0.0
					CHANNELS 6 Xposition Yposition Zposition Zrotation Xrotation Yrotation 
					JOINT Head
					{
						OFFSET 6.45672 0.0 0.0
						CHANNELS 6 Xposition Yposition Zposition Zrotation Xrotation Yrotation 
						End Site
						{
							OFFSET 0.0 0.0 0.0
						}
					}
				}
				JOINT Shoulder_L
				{
					OFFSET 12.9942 -0.242716 4.98039
					CHANNELS 6 Xposition Yposition Zposition Zrotation Xrotation Yrotation 
					JOINT UpperArm_L
					{
						OFFSET 5.34809 0.0 0.0
						CHANNELS 6 Xposition Yposition Zposition Zrotation Xrotation Yrotation 
						JOINT LowerArm_L
						{
							OFFSET 24.3286 1.87007e-05 0.0
							CHANNELS 6 Xposition Yposition Zposition Zrotation Xrotation Yrotation 
							JOINT Hand_L
							{
								OFFSET 22.2916 0.0 0.0
								CHANNELS 6 Xposition Yposition Zposition Zrotation Xrotation Yrotation 
								End Site
								{
									OFFSET 0.0 0.0 0.0
								}
							}
						}
					}
				}
				JOINT Shoulder_R
				{
					OFFSET 12.9945 -0.242716 -4.98039
					CHANNELS 6 Xposition Yposition Zposition Zrotation Xrotation Yrotation 
					JOINT UpperArm_R
					{
						OFFSET -5.34813 0.0 0.0
						CHANNELS 6 Xposition Yposition Zposition Zrotation Xrotation Yrotation 
						JOINT LowerArm_R
						{
							OFFSET -24.3289 0.000322201 0.0
							CHANNELS 6 Xposition Yposition Zposition Zrotation Xrotation Yrotation 
							JOINT Hand_R
							{
								OFFSET -22.2915 -0.000108084 0.0
								CHANNELS 6 Xposition Yposition Zposition Zrotation Xrotation Yrotation 
								End Site
								{
									OFFSET 0.0 0.0 0.0
								}
							}
						}
					}
				}
			}
		}
		JOINT UpperLeg_L
		{
			OFFSET -2.19248 -6.46944 0.0
			CHANNELS 6 Xposition Yposition Zposition Zrotation Xrotation Yrotation 
			JOINT LowerLeg_L
			{
				OFFSET 39.0811 0.0 -1.23785e-05
				CHANNELS 6 Xposition Yposition Zposition Zrotation Xrotation Yrotation 
				JOINT Foot_L
				{
					OFFSET 40.9854 0.0 -1.26872e-05
					CHANNELS 6 Xposition Yposition Zposition Zrotation Xrotation Yrotation 
					JOINT Toes_L
					{
						OFFSET 11.7543 0.0 0.0
						CHANNELS 6 Xposition Yposition Zposition Zrotation Xrotation Yrotation 
						End Site
						{
							OFFSET 0.0 0.0 0.0
						}
					}
				}
			}
		}
		JOINT UpperLeg_R
		{
			OFFSET -2.19251 6.46944 0.0
			CHANNELS 6 Xposition Yposition Zposition Zrotation Xrotation Yrotation 
			JOINT LowerLeg_R
			{
				OFFSET -39.0811 -0.00228153 -0.0401928
				CHANNELS 6 Xposition Yposition Zposition Zrotation Xrotation Yrotation 
				JOINT Foot_R
				{
					OFFSET -40.9854 0.0 0.0
					CHANNELS 6 Xposition Yposition Zposition Zrotation Xrotation Yrotation 
					JOINT Toes_R
					{
						OFFSET -11.7543 0.0 0.0
						CHANNELS 6 Xposition Yposition Zposition Zrotation Xrotation Yrotation 
						End Site
						{
							OFFSET 0.0 0.0 0.0
						}
					}
				}
			}
		}
	}
}
MOTION
Frames:	5
Frame Time:	0.0333333
0.000000 0.000000 0.000000 0.000000 0.000000 -0.000000 -0.516490 92.421000 -1.054310 88.143100 -0.282684 3.631480 15.735700 0.000005 -0.000001 87.270400 86.390400 -87.066700 8.984550 -0.406207 -0.000000 -0.554263 -0.358513 0.405460 16.377300 -0.000001 -0.000001 2.931660 -2.159400 0.269990 6.456720 -0.000001 -0.000000 1.058150 -1.493040 -0.420838 12.994200 -0.242716 4.980390 -86.866100 -9.997610 -72.496100 5.348090 -0.000007 -0.000001 -83.923400 -29.919100 -91.939500 24.328600 0.000019 0.000005 20.463700 1.992510 -84.676900 22.291600 -0.000001 0.000005 24.751500 5.547340 -8.581380 12.994500 -0.242716 -4.980390 90.722000 -2.239480 -72.124400 -5.348130 -0.000001 -0.000004 -72.499500 -27.428600 -100.007000 -24.328900 0.000322 -0.000009 24.400700 5.726490 -77.596000 -22.291500 -0.000108 -0.000004 24.549000 5.286510 0.447250 -2.192480 -6.469440 -0.000000 -175.854000 -5.939560 -3.101280 39.081100 -0.000007 -0.000012 -0.100466 0.245580 22.249400 40.985400 -0.000006 -0.000013 -0.103701 3.354630 -65.775000 11.754300 -0.000000 0.000003 -0.000026 -0.000317 -16.589900 -2.192510 6.469440 -0.000001 179.753000 13.315600 179.069000 -39.081100 -0.002282 -0.040193 -0.006846 0.028999 19.323100 -40.985400 0.000008 0.000006 4.183240 6.886410 -65.393200 -11.754300 -0.000006 -0.000006 -0.007614 -0.084856 -20.028100
0.000000 0.000000 0.000000 0.000000 0.000000 -0.000000 -0.520137 92.418900 -1.034870 88.118200 -0.284632 3.652120 15.735700 0.000005 -0.000001 87.165600 86.391700 -86.955200 8.984550 -0.406207 -0.000000 -0.557542 -0.372056 0.418937 16.377300 -0.000001 -0.000001 2.942480 -2.176460 0.289328 6.456720 -0.000001 -0.000000 1.115500 -1.479590 -0.459298 12.994200 -0.242716 4.980390 -86.862100 -9.995590 -72.471800 5.348090 -0.000007 -0.000001 -83.940200 -29.928900 -91.958900 24.328600 0.000019 0.000005 20.598300 2.013280 -84.659900 22.291600 -0.000001 0.000005 24.727100 5.545080 -8.475800 12.994500 -0.242716 -4.980390 90.722200 -2.231550 -72.062000 -5.348130 -0.000001 -0.000004 -72.374500 -27.381200 -100.053000 -24.328900 0.000322 -0.000009 24.227600 5.745730 -77.458300 -22.291500 -0.000108 -0.000004 24.500300 5.290080 0.348785 -2.192480 -6.469440 -0.000000 -175.814000 -5.957370 -3.070380 39.081100 -0.000007 -0.000012 -0.100870 0.246345 22.267400 40.985400 -0.000006 -0.000013 -0.099070 3.408440 -65.802800 11.754300 -0.000000 0.000003 -0.000033 -0.000396 -16.593000 -2.192510 6.469440 -0.000001 179.785000 13.310200 179.111000 -39.081100 -0.002282 -0.040193 -0.003541 0.019575 19.321300 -40.985400 0.000008 0.000006 4.299520 6.860730 -65.429200 -11.754300 -0.000006 -0.000006 -0.007546 -0.084283 -20.004700
0.000000 0.000000 0.000000 0.000000 0.000000 -0.000000 -0.512280 92.412900 -1.009420 88.147200 -0.304714 3.709890 15.735700 0.000005 -0.000001 87.256400 86.378300 -87.058800 8.984550 -0.406207 -0.000000 -0.530277 -0.360944 0.393416 16.377300 -0.000001 -0.000001 2.970940 -2.197360 0.264359 6.456720 -0.000001 -0.000000 1.103390 -1.527610 -0.411162 12.994200 -0.242716 4.980390 -86.861600 -9.990590 -72.460700 5.348090 -0.000007 -0.000001 -84.060200 -29.915500 -92.067400 24.328600 0.000019 0.000005 20.628200 2.035000 -84.611100 22.291600 -0.000001 0.000005 24.670800 5.542240 -8.345350 12.994500 -0.242716 -4.980390 90.722100 -2.224770 -72.012800 -5.348130 -0.000001 -0.000004 -72.237500 -27.416600 -100.103000 -24.328900 0.000322 -0.000009 24.201400 5.799570 -77.330000 -22.291500 -0.000108 -0.000004 24.424400 5.290790 0.329111 -2.192480 -6.469440 -0.000000 -175.835000 -5.997320 -2.987950 39.081100 -0.000007 -0.000012 -0.101249 0.247253 22.269000 40.985400 -0.000006 -0.000013 -0.095271 3.409570 -65.826800 11.754300 -0.000000 0.000003 -0.000025 -0.000304 -16.589400 -2.192510 6.469440 -0.000001 179.725000 13.300000 179.162000 -39.081100 -0.002282 -0.040193 -0.005834 0.026044 19.369900 -40.985400 0.000008 0.000006 4.238560 6.889130 -65.459600 -11.754300 -0.000006 -0.000006 -0.007637 -0.085042 -20.035700
0.000000 0.000000 0.000000 0.000000 0.000000 -0.000000 -0.511851 92.416200 -0.991537 88.146100 -0.319538 3.693220 15.735700 0.000005 -0.000001 87.213600 86.386900 -87.016100 8.984550 -0.406207 -0.000000 -0.547645 -0.365542 0.393027 16.377300 -0.000001 -0.000001 2.950670 -2.207580 0.262071 6.456720 -0.000001 -0.000000 1.144290 -1.550530 -0.429523 12.994200 -0.242716 4.980390 -86.858500 -9.975990 -72.420900 5.348090 -0.000007 -0.000001 -84.168100 -29.899800 -92.201300 24.328600 0.000019 0.000005 20.646700 2.056780 -84.559100 22.291600 -0.000001 0.000005 24.632700 5.541630 -8.317410 12.994500 -0.242716 -4.980390 90.734700 -2.260360 -71.989100 -5.348130 -0.000001 -0.000004 -72.087700 -27.499000 -100.105000 -24.328900 0.000322 -0.000009 24.123400 5.828540 -77.224000 -22.291500 -0.000108 -0.000004 24.512500 5.290440 0.338732 -2.192480 -6.469440 -0.000000 -175.845000 -5.936100 -2.969620 39.081100 -0.000007 -0.000012 -0.102048 0.249656 22.232600 40.985400 -0.000006 -0.000013 -0.106181 3.349550 -65.826200 11.754300 -0.000000 0.000003 -0.000034 -0.000399 -16.593100 -2.192510 6.469440 -0.000001 179.732000 13.290400 179.180000 -39.081100 -0.002282 -0.040193 -0.003702 0.020014 19.339100 -40.985400 0.000008 0.000006 4.309260 6.870890 -65.473600 -11.754300 -0.000006 -0.000006 -0.007498 -0.083882 -19.988400
0.000000 0.000000 0.000000 0.000000 0.000000 -0.000000 -0.507791 92.411200 -0.972723 88.175300 -0.340633 3.731830 15.735700 0.000005 -0.000001 87.264900 86.376500 -87.077500 8.984550 -0.406207 -0.000000 -0.526675 -0.359293 0.372950 16.377300 -0.000001 -0.000001 2.973470 -2.219620 0.249006 6.456720 -0.000001 -0.000000 1.136210 -1.560400 -0.417852 12.994200 -0.242716 4.980390 -86.860000 -9.966770 -72.413600 5.348090 -0.000007 -0.000001 -84.275300 -29.925900 -92.364600 24.328600 0.000019 0.000005 20.625900 2.083930 -84.481800 22.291600 -0.000001 0.000005 24.600900 5.541150 -8.295200 12.994500 -0.242716 -4.980390 90.731000 -2.244240 -71.953600 -5.348130 -0.000001 -0.000004 -71.934000 -27.571300 -100.181000 -24.328900 0.000322 -0.000009 24.037600 5.893090 -77.037400 -22.291500 -0.000108 -0.000004 24.564600 5.291110 0.320220 -2.192480 -6.469440 -0.000000 -175.863000 -6.020160 -2.915470 39.081100 -0.000007 -0.000012 -0.100680 0.246285 22.234600 40.985400 -0.000006 -0.000013 -0.093629 3.399480 -65.840900 11.754300 -0.000000 0.000003 -0.000023 -0.000290 -16.588900 -2.192510 6.469440 -0.000001 179.674000 13.275000 179.208000 -39.081100 -0.002282 -0.040193 -0.007006 0.029361 19.380800 -40.985400 0.000008 0.000006 4.222350 6.907920 -65.490200 -11.754300 -0.000006 -0.000006 -0.007646 -0.085117 -20.038800
